<?xml version="1.0" encoding="utf-8"?>
<!-- Generator: Adobe Illustrator 17.1.0, SVG Export Plug-In . SVG Version: 6.00 Build 0)  -->
<!DOCTYPE svg PUBLIC "-//W3C//DTD SVG 1.1//EN" "http://www.w3.org/Graphics/SVG/1.1/DTD/svg11.dtd">
<svg version="1.1" id="Layer_1" xmlns="http://www.w3.org/2000/svg" xmlns:xlink="http://www.w3.org/1999/xlink" x="0px" y="0px"
	 width="3300px" height="1800px" viewBox="0 0 3300 1800" enable-background="new 0 0 3300 1800" xml:space="preserve">
<g>
	<rect fill="none" width="3300" height="1800"/>
	<path fill="#CC0000" d="M1419.6,600l-300-80.4l80.4-139.2l-300,80.4V300L680.4,519.6L600,380.4l-80.4,300L380.4,600l80.4,300H300
		l219.6,219.6L380.4,1200l300,80.4L600,1419.6l300-80.4V1500l219.6-219.6l80.4,139.2l80.4-300l139.2,80.4l-80.4-300H1500
		l-219.6-219.6L1419.6,600z M1079.2,589.6l24.9,192.5l106.2-61.3L1135.7,900h122.7l-154.3,117.9l106.2,61.3l-192.5,24.9l61.3,106.2
		L900,1135.7v122.7l-117.9-154.3l-61.3,106.2l-24.9-192.5l-106.2,61.3L664.3,900H541.6l154.3-117.9l-106.2-61.3l192.5-24.9
		l-61.3-106.2L900,664.3V541.6l117.9,154.3L1079.2,589.6z"/>
	<g>
		<path fill="#FFFFFF" d="M2196.8,824.8h-77.6v-49.2h211.2v49.2h-77.6v222.8h-56V824.8z"/>
		<path fill="#FFFFFF" d="M2451.6,775.7h185.6v49.2h-129.6v62.4h109.6v48h-109.6v63.2h129.6v49.2h-185.6V775.7z"/>
		<path fill="#FFFFFF" d="M2850,921.2c-13.6-12.8-32.4-37.2-32.4-37.2s4,30,4,49.6v114h-52.4V773.3h5.6L2912,902
			c13.2,12.4,32,37.2,32,37.2s-3.6-30.8-3.6-49.6v-114h52.4V1050h-5.6L2850,921.2z"/>
		<path fill="#FFFFFF" d="M1997.2,1047.6h58.8l-124.4-274.4h-4.8l-119.6,274.4h54l21.4-52.1h92.7L1997.2,1047.6z M1901.8,948.7
			l10.6-25.9c7.6-18.8,15.6-47.2,16-48.4c0.8,2.8,8.8,30.4,16.4,48.4l10.9,25.9H1901.8z"/>
	</g>
</g>
<g>
</g>
<g>
</g>
<g>
</g>
<g>
</g>
<g>
</g>
<g>
</g>
<g>
</g>
<g>
</g>
<g>
</g>
<g>
</g>
<g>
</g>
<g>
</g>
<g>
</g>
<g>
</g>
<g>
</g>
</svg>
