<?xml version="1.0" encoding="utf-8"?>
<!-- Generator: Adobe Illustrator 17.1.0, SVG Export Plug-In . SVG Version: 6.00 Build 0)  -->
<!DOCTYPE svg PUBLIC "-//W3C//DTD SVG 1.1//EN" "http://www.w3.org/Graphics/SVG/1.1/DTD/svg11.dtd">
<svg version="1.1" xmlns="http://www.w3.org/2000/svg" xmlns:xlink="http://www.w3.org/1999/xlink" x="0px" y="0px"
	 viewBox="0 182 960 286" enable-background="new 0 182 960 286" xml:space="preserve">
<g id="Layer_2_1_">
	<rect x="94.1" y="265.5" fill="#FFFFFF" width="28" height="53.5"/>
	<rect x="358.4" y="220.1" fill="#FFFFFF" width="76.7" height="102.1"/>
	<rect x="694.5" y="207.3" fill="#FFFFFF" width="163.4" height="107.1"/>
</g>
<g id="Layer_1">
	<g id="Layer_1_1_">
		<g id="Livello_8" opacity="0.7">
			<path d="M435.2,322.2h-76.7V220.1h76.7V322.2L435.2,322.2z M393.8,328.1c0-1.7,1.4-3,3-3s3,1.4,3,3s-1.4,3-3,3
				C395.1,331.2,393.8,329.8,393.8,328.1 M445.1,213.6L445.1,213.6L445.1,213.6c0-2.7-2-4.7-4.7-4.7c0,0,0,0-0.2,0l0,0h-87l0,0
				c0,0,0,0-0.2,0c-2.5,0-4.7,2-4.7,4.7c0,0,0,0,0,0.2l0,0v114.9h0.2c0,0,0,0,0,0.2c0,2.5,2,4.7,4.7,4.7c0,0,0,0,0.2,0l0,0h86.7l0,0
				c0,0,0,0,0.2,0c2.5,0,4.7-2,4.7-4.7c0,0,0,0,0-0.2h0.2V213.6L445.1,213.6z"/>
		</g>
		<g id="Livello_1_1_">
		</g>
		<g id="Livello_12" opacity="0.7">
			<path d="M122,319H94.5v-50.5H122V319z M105.7,327.9c0-1.5,1.2-2.7,2.7-2.7c1.5,0,2.7,1.2,2.7,2.7c0,1.5-1.2,2.7-2.7,2.7
				C106.8,330.8,105.7,329.5,105.7,327.9 M127.8,330.5L127.8,330.5v-66.6l0,0l0,0l0,0c0-1.5-1.2-2.7-2.7-2.7l0,0l0,0h-6.3h-18.1h-9
				c-1.5,0-2.7,1.2-2.7,2.7l0,0v66.6l0,0c0,0,0,0,0,0.2c0,1.5,1.2,2.7,2.9,2.7l0,0l0,0h33.3l0,0C126.6,333.4,127.8,332,127.8,330.5
				L127.8,330.5"/>
		</g>
		<g id="Livello_1_2_">
		</g>
		<g id="Livello_26" opacity="0.7">
			<path d="M762.6,328.8c0-1,0.7-1.7,1.7-1.7h24.5c1,0,1.7,0.7,1.7,1.7s-0.8,1.7-1.7,1.7h-24.5C763.3,330.5,762.6,329.6,762.6,328.8
				 M857.9,314.4H694.5V207.3h163.4v110.5V314.4z M895.1,329.6c0-2.5-2-4.6-4.6-4.6v-0.3h-24.3c1.2-0.5,2-1.9,2-3.2V200.4
				c0-2-1.5-3.5-3.5-3.5H687.6c-2,0-3.5,1.5-3.5,3.5v121.2c0,1.5,0.8,2.7,2,3.2h-23.5v0.3c-2.5,0-4.6,2-4.6,4.6c0,2.5,2,4.6,4.6,4.6
				h227.9C893.1,334.2,895.1,332.2,895.1,329.6"/>
		</g>
		<g id="Livello_1_3_">
		</g>
		<g id="Livello_1_4_" opacity="0.7">
		</g>
	</g>
	<g id="Layer_2">
		<g opacity="0.3">
			<circle cx="91" cy="386.8" r="5"/>
			<path d="M899,381.8c-2.1,0-4,1.4-4.7,3.2H769c-0.7-1.9-2.5-3.2-4.7-3.2s-4,1.4-4.7,3.2H634.3c-0.7-1.9-2.5-3.2-4.7-3.2
				s-4,1.4-4.7,3.2H499.7c-0.7-1.9-2.5-3.2-4.7-3.2s-4,1.4-4.7,3.2H365c-0.7-1.9-2.5-3.2-4.7-3.2s-4,1.4-4.7,3.2H230.3
				c-0.7-1.9-2.5-3.2-4.7-3.2s-4,1.4-4.7,3.2H96v1.8v2.2h125.2c0.8,1.6,2.5,2.8,4.4,2.8s3.6-1.1,4.4-2.8h125.8
				c0.8,1.6,2.5,2.8,4.4,2.8s3.6-1.1,4.4-2.8h125.8c0.8,1.6,2.5,2.8,4.4,2.8s3.6-1.1,4.4-2.8H625c0.8,1.6,2.5,2.8,4.4,2.8
				s3.6-1.1,4.4-2.8h125.8c0.8,1.6,2.5,2.8,4.4,2.8s3.6-1.1,4.4-2.8h125.8c0.8,1.6,2.5,2.8,4.4,2.8c2.8,0,5-2.2,5-5
				S901.8,381.8,899,381.8z"/>
		</g>
		<text transform="matrix(1 0 0 1 94.0742 445)" font-family="'HelveticaNeue-CondensedBold'" font-size="12">5 Columns</text>
		<text transform="matrix(1 0 0 1 369.3236 445)" font-family="'HelveticaNeue-CondensedBold'" font-size="12">11 Columns</text>
		<text transform="matrix(1 0 0 1 754.7756 445.0003)" font-family="'HelveticaNeue-CondensedBold'" font-size="12">23 Columns</text>
	</g>
	<g>
		<line fill="#FFFFFF" stroke="#FF0000" stroke-miterlimit="10" x1="706.1" y1="208.8" x2="706.1" y2="314.4"/>
		<line fill="#FFFFFF" stroke="#FF0000" stroke-miterlimit="10" x1="712.2" y1="208.8" x2="712.2" y2="314.4"/>
		<line fill="#FFFFFF" stroke="#FF0000" stroke-miterlimit="10" x1="718.3" y1="208.8" x2="718.3" y2="314.4"/>
		<line fill="#FFFFFF" stroke="#FF0000" stroke-miterlimit="10" x1="724.3" y1="208.8" x2="724.3" y2="314.4"/>
		<line fill="#FFFFFF" stroke="#FF0000" stroke-miterlimit="10" x1="730.4" y1="208.8" x2="730.4" y2="314.4"/>
		<line fill="#FFFFFF" stroke="#FF0000" stroke-miterlimit="10" x1="736.5" y1="208.8" x2="736.5" y2="314.4"/>
		<line fill="#FFFFFF" stroke="#FF0000" stroke-miterlimit="10" x1="742.6" y1="208.8" x2="742.6" y2="314.4"/>
		<line fill="#FFFFFF" stroke="#FF0000" stroke-miterlimit="10" x1="748.7" y1="208.8" x2="748.7" y2="314.4"/>
		<line fill="#FFFFFF" stroke="#FF0000" stroke-miterlimit="10" x1="754.8" y1="208.8" x2="754.8" y2="314.4"/>
		<line fill="#FFFFFF" stroke="#FF0000" stroke-miterlimit="10" x1="760.9" y1="208.8" x2="760.9" y2="314.4"/>
		<line fill="#FFFFFF" stroke="#FF0000" stroke-miterlimit="10" x1="766.9" y1="208.8" x2="766.9" y2="314.4"/>
		<line fill="#FFFFFF" stroke="#FF0000" stroke-miterlimit="10" x1="773" y1="208.8" x2="773" y2="314.4"/>
		<line fill="#FFFFFF" stroke="#FF0000" stroke-miterlimit="10" x1="779.1" y1="208.8" x2="779.1" y2="314.4"/>
		<line fill="#FFFFFF" stroke="#FF0000" stroke-miterlimit="10" x1="785.2" y1="208.8" x2="785.2" y2="314.4"/>
		<line fill="#FFFFFF" stroke="#FF0000" stroke-miterlimit="10" x1="791.3" y1="208.8" x2="791.3" y2="314.4"/>
		<line fill="#FFFFFF" stroke="#FF0000" stroke-miterlimit="10" x1="797.4" y1="208.8" x2="797.4" y2="314.4"/>
		<line fill="#FFFFFF" stroke="#FF0000" stroke-miterlimit="10" x1="803.5" y1="208.8" x2="803.5" y2="314.4"/>
		<line fill="#FFFFFF" stroke="#FF0000" stroke-miterlimit="10" x1="809.6" y1="208.8" x2="809.6" y2="314.4"/>
		<line fill="#FFFFFF" stroke="#FF0000" stroke-miterlimit="10" x1="815.6" y1="208.8" x2="815.6" y2="314.4"/>
		<line fill="#FFFFFF" stroke="#FF0000" stroke-miterlimit="10" x1="821.7" y1="208.8" x2="821.7" y2="314.4"/>
		<line fill="#FFFFFF" stroke="#FF0000" stroke-miterlimit="10" x1="827.8" y1="208.8" x2="827.8" y2="314.4"/>
		<line fill="#FFFFFF" stroke="#FF0000" stroke-miterlimit="10" x1="833.9" y1="208.8" x2="833.9" y2="314.4"/>
		<line fill="#FFFFFF" stroke="#FF0000" stroke-miterlimit="10" x1="840" y1="208.8" x2="840" y2="314.4"/>
		<line fill="#FFFFFF" stroke="#FF0000" stroke-miterlimit="10" x1="846.1" y1="208.8" x2="846.1" y2="314.4"/>
	</g>
	<g>
		<line fill="#FFFFFF" stroke="#FF0000" stroke-miterlimit="10" x1="363.2" y1="221.2" x2="363.2" y2="321"/>
		<line fill="#FFFFFF" stroke="#FF0000" stroke-miterlimit="10" x1="369.3" y1="221.2" x2="369.3" y2="321"/>
		<line fill="#FFFFFF" stroke="#FF0000" stroke-miterlimit="10" x1="375.4" y1="221.2" x2="375.4" y2="321"/>
		<line fill="#FFFFFF" stroke="#FF0000" stroke-miterlimit="10" x1="381.5" y1="221.2" x2="381.5" y2="321"/>
		<line fill="#FFFFFF" stroke="#FF0000" stroke-miterlimit="10" x1="387.6" y1="221.2" x2="387.6" y2="321"/>
		<line fill="#FFFFFF" stroke="#FF0000" stroke-miterlimit="10" x1="393.7" y1="221.2" x2="393.7" y2="321"/>
		<line fill="#FFFFFF" stroke="#FF0000" stroke-miterlimit="10" x1="399.8" y1="221.2" x2="399.8" y2="321"/>
		<line fill="#FFFFFF" stroke="#FF0000" stroke-miterlimit="10" x1="405.8" y1="221.2" x2="405.8" y2="321"/>
		<line fill="#FFFFFF" stroke="#FF0000" stroke-miterlimit="10" x1="411.9" y1="221.2" x2="411.9" y2="321"/>
		<line fill="#FFFFFF" stroke="#FF0000" stroke-miterlimit="10" x1="418" y1="221.2" x2="418" y2="321"/>
		<line fill="#FFFFFF" stroke="#FF0000" stroke-miterlimit="10" x1="424.1" y1="221.2" x2="424.1" y2="321"/>
		<line fill="#FFFFFF" stroke="#FF0000" stroke-miterlimit="10" x1="430.2" y1="221.2" x2="430.2" y2="321"/>
	</g>
	<g>
		<line fill="#FFFFFF" stroke="#FF0000" stroke-miterlimit="10" x1="98.4" y1="269.1" x2="98.4" y2="319"/>
		<line fill="#FFFFFF" stroke="#FF0000" stroke-miterlimit="10" x1="102.6" y1="269.1" x2="102.6" y2="319"/>
		<line fill="#FFFFFF" stroke="#FF0000" stroke-miterlimit="10" x1="106.8" y1="269.1" x2="106.8" y2="319"/>
		<line fill="#FFFFFF" stroke="#FF0000" stroke-miterlimit="10" x1="111" y1="269.1" x2="111" y2="319"/>
		<line fill="#FFFFFF" stroke="#FF0000" stroke-miterlimit="10" x1="115.1" y1="269.1" x2="115.1" y2="319"/>
		<line fill="#FFFFFF" stroke="#FF0000" stroke-miterlimit="10" x1="119.3" y1="269.1" x2="119.3" y2="319"/>
	</g>
</g>
</svg>
