<?xml version="1.0" encoding="utf-8"?>
<!-- Generator: Adobe Illustrator 18.0.0, SVG Export Plug-In . SVG Version: 6.00 Build 0)  -->
<!DOCTYPE svg PUBLIC "-//W3C//DTD SVG 1.1//EN" "http://www.w3.org/Graphics/SVG/1.1/DTD/svg11.dtd">
<svg version="1.1" id="Layer_1" xmlns="http://www.w3.org/2000/svg" xmlns:xlink="http://www.w3.org/1999/xlink" x="0px" y="0px"
	 width="418px" height="575px" viewBox="0 0 418 575" enable-background="new 0 0 418 575" xml:space="preserve">
<g id="flow" opacity="0.8">
	
		<rect id="block_1_" x="35" y="4" fill="none" stroke="#E5E5E5" stroke-width="3" stroke-miterlimit="10" width="348.8" height="232.5"/>
	
		<rect id="block" x="35" y="271.5" fill="none" stroke="#E5E5E5" stroke-width="3" stroke-miterlimit="10" width="157.5" height="105"/>
	
		<rect id="block_2_" x="227.5" y="271.5" fill="none" stroke="#E5E5E5" stroke-width="3" stroke-miterlimit="10" width="157.5" height="105"/>
	
		<rect id="block_4_" x="35" y="410.8" fill="none" stroke="#E5E5E5" stroke-width="3" stroke-miterlimit="10" width="157.5" height="105"/>
	
		<rect id="block_3_" x="227.5" y="410.8" fill="none" stroke="#E5E5E5" stroke-width="3" stroke-miterlimit="10" width="157.5" height="105"/>
	
		<rect id="block_6_" x="35" y="271.5" fill="none" stroke="#E5E5E5" stroke-width="3" stroke-miterlimit="10" width="157.5" height="105"/>
	
		<rect id="block_5_" x="227.5" y="271.5" fill="none" stroke="#E5E5E5" stroke-width="3" stroke-miterlimit="10" width="157.5" height="105"/>
	<polygon fill="#E5E5E5" points="218.4,324 204.6,316 204.6,320 184.6,320 184.6,328 204.6,328 204.6,332 	"/>
	<polygon fill="#E5E5E5" points="218.4,463.2 204.6,455.3 204.6,459.3 184.6,459.3 184.6,467.2 204.6,467.2 204.6,471.2 	"/>
	<polygon fill="#E5E5E5" points="196,404.3 211.4,400.2 208.6,397.3 222.7,383.2 217.1,377.5 202.9,391.7 200.1,388.9 	"/>
	<polygon fill="#E5E5E5" points="209.4,261.4 217.4,247.6 213.4,247.6 213.4,227.6 205.5,227.6 205.5,247.6 201.5,247.6 	"/>
</g>
<g id="position" display="none" opacity="0.6">
	<g id="block_8_" display="inline" opacity="0.61">
		<g>
			<polyline fill="none" stroke="#333333" stroke-width="3" stroke-miterlimit="10" points="35,86.8 35,80.8 41,80.8 			"/>
			
				<line fill="none" stroke="#333333" stroke-width="3" stroke-miterlimit="10" stroke-dasharray="12.4062,12.4062" x1="53.4" y1="80.8" x2="295.3" y2="80.8"/>
			<polyline fill="none" stroke="#333333" stroke-width="3" stroke-miterlimit="10" points="301.5,80.8 307.5,80.8 307.5,86.8 			
				"/>
			
				<line fill="none" stroke="#333333" stroke-width="3" stroke-miterlimit="10" stroke-dasharray="11.3124,11.3124" x1="307.5" y1="98.1" x2="307.5" y2="250.8"/>
			<polyline fill="none" stroke="#333333" stroke-width="3" stroke-miterlimit="10" points="307.5,256.5 307.5,262.5 301.5,262.5 
							"/>
			
				<line fill="none" stroke="#333333" stroke-width="3" stroke-miterlimit="10" stroke-dasharray="12.4062,12.4062" x1="289.1" y1="262.5" x2="47.2" y2="262.5"/>
			<polyline fill="none" stroke="#333333" stroke-width="3" stroke-miterlimit="10" points="41,262.5 35,262.5 35,256.5 			"/>
			
				<line fill="none" stroke="#333333" stroke-width="3" stroke-miterlimit="10" stroke-dasharray="11.3124,11.3124" x1="35" y1="245.2" x2="35" y2="92.5"/>
		</g>
	</g>
	
		<rect id="block_7_" x="111.2" y="30" display="inline" fill="none" stroke="#333333" stroke-width="3" stroke-miterlimit="10" width="272.5" height="181.7"/>
	<polygon display="inline" points="88.7,40.7 72.7,40.7 74.7,44.1 57.4,54.2 61.4,61.1 78.7,51 80.7,54.5 	"/>
	<polygon display="inline" points="362,233 346.1,233 348.1,236.5 330.7,246.5 334.7,253.4 352.1,243.4 354.1,246.8 	"/>
</g>
<g id="boxmodel" display="none" opacity="0.6">
	<g id="block_11_" display="inline" opacity="0.61">
		<g>
			<polyline fill="none" stroke="#333333" stroke-width="3" stroke-miterlimit="10" points="96.3,97.3 96.3,91.3 102.3,91.3 			"/>
			
				<line fill="none" stroke="#333333" stroke-width="3" stroke-miterlimit="10" stroke-dasharray="12.5931,12.5931" x1="114.9" y1="91.3" x2="310.1" y2="91.3"/>
			<polyline fill="none" stroke="#333333" stroke-width="3" stroke-miterlimit="10" points="316.4,91.3 322.4,91.3 322.4,97.3 			
				"/>
			
				<line fill="none" stroke="#333333" stroke-width="3" stroke-miterlimit="10" stroke-dasharray="10.8704,10.8704" x1="322.4" y1="108.2" x2="322.4" y2="189.7"/>
			<polyline fill="none" stroke="#333333" stroke-width="3" stroke-miterlimit="10" points="322.4,195.2 322.4,201.2 316.4,201.2 
							"/>
			
				<line fill="none" stroke="#333333" stroke-width="3" stroke-miterlimit="10" stroke-dasharray="12.5931,12.5931" x1="303.8" y1="201.2" x2="108.6" y2="201.2"/>
			<polyline fill="none" stroke="#333333" stroke-width="3" stroke-miterlimit="10" points="102.3,201.2 96.3,201.2 96.3,195.2 			
				"/>
			
				<line fill="none" stroke="#333333" stroke-width="3" stroke-miterlimit="10" stroke-dasharray="10.8704,10.8704" x1="96.3" y1="184.3" x2="96.3" y2="102.8"/>
		</g>
	</g>
	
		<rect id="block_9_" x="65.7" y="60.7" display="inline" fill="none" stroke="#333333" stroke-width="3" stroke-miterlimit="10" width="287.4" height="171.2"/>
	
		<rect id="block_13_" x="35" y="30" display="inline" opacity="0.61" fill="none" stroke="#333333" stroke-width="3" stroke-miterlimit="10" stroke-dasharray="12" enable-background="new    " width="348.8" height="232.5"/>
</g>
</svg>
