<?xml version="1.0" encoding="utf-8"?>
<!-- Generator: Adobe Illustrator 17.1.0, SVG Export Plug-In . SVG Version: 6.00 Build 0)  -->
<!DOCTYPE svg PUBLIC "-//W3C//DTD SVG 1.1//EN" "http://www.w3.org/Graphics/SVG/1.1/DTD/svg11.dtd">
<svg version="1.1" id="Layer_1" xmlns="http://www.w3.org/2000/svg" xmlns:xlink="http://www.w3.org/1999/xlink" x="0px" y="0px"
	 viewBox="0 0 522.5 336.2" enable-background="new 0 0 522.5 336.2" xml:space="preserve">
<path fill="#ca0914" d="M457.5,144c-0.2,0.6-0.4,1.2-0.5,1.8c18.1,7.4,36.2,14.8,54.4,22.2c-0.1,0.3-0.1,0.7-0.2,1
	c-17.4,1-34.7,2.1-53.8,3.2c4.8,5.8,8.7,10.6,13.3,16.1c-7.2,1.4-13.7,2.8-21.8,4.4c4.4,3.7,7.6,6.3,11.9,9.9
	c-7.5,1-13.9,1.8-21.5,2.7c12.3,20.6,24.1,40.3,37,62c-19.2-7.4-36.4-14-54.9-21.1c1.9,15.1,3.7,28.8,5.7,44.2
	c-15.6-14.4-30-27.7-45.7-42.2c-1.1,11.6-2,21.3-3.1,32.7c-8.9-10.6-16.8-20-25.4-30.3c-3.1,7.1-5.7,13.3-8.8,20.3
	c-5.5-7.2-10.5-13.7-16.1-21.1c-4.2,7.9-8,14.8-12.2,22.7c-2-3.2-3.6-5.6-6.3-9.9c-3.4,18.4-6.5,35-10,53.4
	c-4.3-13.9-8-25.9-11.8-38c-0.6,0-1.2,0-1.8,0c-7.4,19.4-14.8,38.7-22.3,58.1c-0.5,0-0.9,0-1.4,0c-3.4-22.4-6.9-44.9-10.3-67.3
	c-0.6-0.2-1.1-0.3-1.7-0.5c-4.1,7-8.2,14.1-13.1,22.5c-5.2-11.3-10-21.7-15.6-34c-5.9,11.9-11.1,22.2-16.9,34
	c-3-8.7-5.6-15.9-8.8-25.2c-13.4,20.8-25.9,40.1-38.3,59.5c-0.4-0.1-0.8-0.2-1.2-0.4c2-15.2,4-30.4,6-45.6c-0.5-0.2-1.1-0.5-1.6-0.7
	c-11.2,13-22.4,26-35,40.8c-1.5-16.6-2.9-31.2-4.2-45.6c-13.5,12.9-26.9,25.6-41.4,39.5c2.3-16.1,4.4-30.5,6.8-46.5
	c-21.3,9.8-41,18.9-60.7,28c-0.4-0.4-0.7-0.7-1.1-1.1c10.9-14,21.9-28,33.6-43c-17.1,0-32.9,0-48.7,0c-1.5-4.9,20.5-24.4,29.7-31.9
	c-7.2-2.8-13.2-5.2-20.3-8c9.9-8.3,19.2-16.1,29.8-25C36.9,180.9,0,168.1,0,168.1s40-16.8,52.7-20.6c2.2-0.7,4.5-1.4,8.6-2.8
	c-14.6-9.8-28.1-18.7-41.5-27.7c0.1-0.4,0.2-0.9,0.2-1.3c15,0,30,0,47.1,0c-9-14.3-17.1-26.9-25.9-40.9c17,4.3,32.7,8.3,50.3,12.7
	C83.4,68.5,76.1,51.2,67.8,32c20.5,16.1,39.5,30.9,59.6,46.6c1.8-8.2,3.3-15.2,5-23.4c6.3,5.5,12,10.4,18.9,16.4
	c1.7-10.5,3.3-19.6,5-30.2c13.5,11.4,26.2,22.1,40.1,33.8c11.2-22.4,22.1-44.1,33.8-67.6c7.3,19.9,14,38.4,21.5,58.7
	c7.9-13.2,14.9-24.9,22.6-37.9c4.1,10.6,7.8,20,11.9,30.7c9.5-12.6,18.2-24.1,27.4-36.3c5.5,10.1,10.7,19.6,16.6,30.4
	C342,37.7,353,23,364,8.3c0.3,0.2,0.7,0.3,1,0.5c-2.6,14.5-5.3,29.1-7.9,43.6c0.5,0.3,1,0.7,1.4,1C374.3,36,390,18.6,406.7,0
	c-3.4,19.4-6.4,37.1-9.8,56.6c12.8-5.8,24-10.9,37.2-16.8c-6.1,9.2-11,16.8-17,26c7.9-1.2,14-2.1,20.9-3.2
	c-1.7,4.1-3.1,7.3-5.1,11.8c22.2-1.6,43.3-3.1,64.4-4.7c0.2,0.5,0.4,0.9,0.6,1.4c-17.1,10.2-34.1,20.3-51.2,30.5
	c0.1,0.6,0.1,1.2,0.2,1.8c25.1,5.4,50.3,10.9,75.4,16.3C522.5,121.6,479.2,137.8,457.5,144z"/>
<g>
	<path fill="#FFFFFF" d="M235.6,116.8c-21.5-5.4-41.5,0.5-59,13.5c-3.6,2.7-4.6,9.2-6.3,14.1c-1.1,3.4-0.5,7.4-2,10.5
		c-8,16.5-16.6,32.6-24.4,49.1c-2.7,5.9-4.3,12.6-5,19c-0.6,6.2,3.8,9.6,9.7,11.3c6.2,1.9,8.1-2.4,10-6.4c2.6-5.3,4.9-10.8,7.2-16.3
		c5.8-13.5,5.8-13.5,18.9-7.1c15.2,7.5,30.9,13.2,47.9,15.3c4.9,0.6,6.8-1.1,7.6-5.8c1.6-10,0.4-12.4-9.3-15.9
		c-6-2.2-12.2-3.9-18.3-6c-4.9-1.7-9.7-3.7-14.5-5.6c0-0.7,0-1.3,0.1-2c5.5-2.7,11.2-5,16.4-8.2c10.5-6.4,21.8-12,30.9-20
		C262,141.6,257.2,122.2,235.6,116.8z M187.8,164.7c3.6-7.1,7-14.4,11.1-21.2c1.1-1.8,4.2-2.8,6.6-3.4c8.3-2.4,16.7-4.8,26.1-1.2
		C221.2,154.8,205,160,187.8,164.7z"/>
	<path fill="#FFFFFF" d="M147.8,176c0.4-7.4-3.9-11.7-11.4-11c-5.3,0.5-10.6,2.4-15.8,3.7c-4.5,1.2-9,2.5-13.5,3.7
		c-0.6-1-1.2-2-1.8-3c4.4-3.6,8.4-8.1,13.3-10.5c8.7-4.2,18.1-7.1,27.1-10.6c5.5-2.1,11.3-3.8,16.4-6.7c6.2-3.4,7-9.9,1.3-14
		c-3.8-2.7-9.9-4.8-14.1-3.9c-11.3,2.6-22,7.2-33.1,10.6c-2.7,0.8-6-0.5-9-0.5c-2.4,0-5.6-0.2-7.1,1.1c-5.6,5-10.3,11-16,15.9
		c-3.9,3.3-5.3,6.6-3,11.1c2.2,4.3,1,7.9-1,12c-6.6,13.6-13.1,27.4-19.1,41.3c-2,4.7-3.3,10-3.7,15c-0.5,6.7,4.2,10.8,11.3,12.3
		c6.9,1.6,7.2-3.9,8.8-7.7c3.3-7.9,6.5-15.8,9.3-23.9c1.6-4.7,4.5-7,9.1-8.8c16.1-6.3,32-13.1,47.9-20.2
		C145.8,181.4,147.7,178.2,147.8,176z"/>
	<path fill="#FFFFFF" d="M335.8,107c-3-2.3-8-3.8-11.7-3.2c-19.9,3-38.7,9.3-56.1,19.5c-1.9,1.1-4.1,4.2-3.8,5.9
		c2.8,15.2-3.3,28.4-8.5,41.9c-3.1,8.1-5.8,16.7-7,25.2c-1.9,13.7,4.5,20.1,18.1,17.5c17.7-3.4,35-8.3,52.5-12.7
		c1.1-0.3,2.2-0.9,3.2-1.5c3.9-2.4,7.8-4.7,6.7-10.5c-1.2-6.1-5.1-9.2-10.8-9.6c-4.7-0.3-9.5,0-14.2,0.6c-9.3,1.4-18.5,3.2-27.7,4.8
		c-0.6-0.8-1.2-1.7-1.7-2.5c2.9-3.3,5.3-7.4,8.8-9.5c4.2-2.4,9.3-3.2,14.1-4.5c6.8-1.9,13.9-3.2,20.5-5.7c2.5-1,5.8-4.9,5.5-7
		c-0.5-3.2-3.2-7.6-6-8.6c-4.7-1.7-10.2-1.7-15.3-1.6c-4.7,0.1-9.3,1.3-15.2,2.2c0.3-6.9,3.4-11.2,8.6-13.5c4.5-2,9.4-3.2,14.2-4.4
		c7.6-1.9,15.4-3,22.7-5.6C340.9,121.6,342.5,112.2,335.8,107z"/>
	<path fill="#FFFFFF" d="M386.4,154.8c10.3-1,20.4-4.1,30.7-6c5-0.9,5.9-4,5.5-8.2c-0.6-6.4-4.3-10-11.5-10c-8,0-16,0.6-24,1
		c1.4-12.6,3.2-14.8,14.4-17.3c9.5-2.1,19.4-4.5,28.5-6.2c9.1-1.7,6.1-22-3.2-21.5c-9.3,0.5-46.4,6.5-67,18.8
		c-6.9,4.1-7.8,8.2-2.7,14c7,8,5,15.2,1.2,23.5c-6.4,14-11.9,28.4-18.1,42.5c-2.7,6.1-0.6,10.7,4.3,13.2c4.4,2.2,10.2,4,14.8,3
		c18.2-4.1,36.2-9.2,54.3-14.1c2-0.5,3.9-1.8,5.5-3.1c5.1-4.3,4.5-11.8-1.6-14.7c-2.7-1.3-6-2-8.9-1.8c-12.5,1.2-24.9,2.9-38,4.5
		c0.4-1.5,1.1-3.2,1.4-5C373.5,159.3,377.8,155.6,386.4,154.8z"/>
</g>
</svg>
