<?xml version="1.0" encoding="utf-8"?>
<!-- Generator: Adobe Illustrator 17.1.0, SVG Export Plug-In . SVG Version: 6.00 Build 0)  -->
<!DOCTYPE svg PUBLIC "-//W3C//DTD SVG 1.1//EN" "http://www.w3.org/Graphics/SVG/1.1/DTD/svg11.dtd">
<svg version="1.1" xmlns="http://www.w3.org/2000/svg" xmlns:xlink="http://www.w3.org/1999/xlink" x="0px" y="0px"
	 viewBox="0 0 30 40" enable-background="new 0 0 30 40" xml:space="preserve">
<g id="Background">
	<rect fill="#FFFFFF" width="30" height="40"/>
</g>
<g id="Layout">
	<g id="views" opacity="0.3">
		<g id="row_1_">
			<rect x="2" y="30" fill="#333333" width="3" height="3"/>
			<rect x="6" y="30" fill="#333333" width="5" height="1"/>
			<rect x="6" y="32" fill="#333333" width="5" height="1"/>
		</g>
		<g id="row_2_">
			<rect x="2" y="35" fill="#333333" width="3" height="3"/>
			<rect x="6" y="35" fill="#333333" width="5" height="1"/>
			<rect x="6" y="37" fill="#333333" width="5" height="1"/>
		</g>
		<g id="row">
			<rect x="2" y="25" fill="#333333" width="3" height="3"/>
			<rect x="6" y="25" fill="#333333" width="5" height="1"/>
			<rect x="6" y="27" fill="#333333" width="5" height="1"/>
		</g>
	</g>
	<g id="header" opacity="0.3">
		<rect x="2" y="2" fill="#333333" width="26" height="5"/>
	</g>
	<g id="blocks">
		<rect id="block_1_" x="2" y="9" fill="#333333" width="9" height="6"/>
		<rect id="block" x="2" y="17" fill="#333333" width="9" height="6"/>
	</g>
	<g id="node" opacity="0.3">
		<rect id="node-footer" x="13" y="37" fill="#333333" width="15" height="1"/>
		<rect id="node-figure" x="22" y="13" fill="#333333" width="6" height="6"/>
		<polygon id="node-body" fill="#333333" points="21,13 21,20 28,20 28,36 13,36 13,21 13,20 13,13 		"/>
		<rect id="node-header" x="13" y="9" fill="#333333" width="15" height="3"/>
	</g>
</g>
</svg>
