<?xml version="1.0" encoding="utf-8"?>
<!-- Generator: Adobe Illustrator 17.1.0, SVG Export Plug-In . SVG Version: 6.00 Build 0)  -->
<!DOCTYPE svg PUBLIC "-//W3C//DTD SVG 1.1//EN" "http://www.w3.org/Graphics/SVG/1.1/DTD/svg11.dtd">
<svg version="1.1" xmlns="http://www.w3.org/2000/svg" xmlns:xlink="http://www.w3.org/1999/xlink" x="0px" y="0px"
	 viewBox="0 0 960 700" enable-background="new 0 0 960 700" xml:space="preserve">
<g id="Layer_1">
	<g id="Livello_8" opacity="0.7">
		<path d="M344.9,327.1h-45.4v-60.4h45.4L344.9,327.1L344.9,327.1z M320.4,330.6c0-1,0.8-1.8,1.8-1.8c1,0,1.8,0.8,1.8,1.8
			c0,1-0.8,1.8-1.8,1.8C321.2,332.4,320.4,331.6,320.4,330.6 M350.8,262.8L350.8,262.8C350.8,262.8,350.8,262.8,350.8,262.8
			c0-1.6-1.2-2.8-2.8-2.8c0,0,0,0-0.1,0v0h-51.5v0c0,0,0,0-0.1,0c-1.5,0-2.8,1.2-2.8,2.8c0,0,0,0,0,0.1h0v68h0.1c0,0,0,0,0,0.1
			c0,1.5,1.2,2.8,2.8,2.8c0,0,0,0,0.1,0v0h51.3v0c0,0,0,0,0.1,0c1.5,0,2.8-1.2,2.8-2.8c0,0,0,0,0-0.1h0.1L350.8,262.8L350.8,262.8z"
			/>
	</g>
	<g id="Livello_1_1_">
	</g>
	<g id="Livello_12" opacity="0.7">
		<path d="M159.6,325.2h-16.3v-29.9h16.3V325.2z M149.9,330.5c0-0.9,0.7-1.6,1.6-1.6c0.9,0,1.6,0.7,1.6,1.6c0,0.9-0.7,1.6-1.6,1.6
			C150.6,332.2,149.9,331.4,149.9,330.5 M163,332L163,332l0-39.4v0v0h0c0-0.9-0.7-1.6-1.6-1.6c0,0,0,0,0,0v0h-3.7h-10.7h-5.3
			c-0.9,0-1.6,0.7-1.6,1.6h0V332h0c0,0,0,0,0,0.1c0,0.9,0.7,1.6,1.7,1.6c0,0,0,0,0,0v0h19.7l0,0C162.3,333.7,163,332.9,163,332
			C163,332,163,332,163,332"/>
	</g>
	<g id="Livello_1_2_">
	</g>
	<g id="Livello_26" opacity="0.7">
		<path d="M538.7,331c0-0.6,0.4-1,1-1h14.5c0.6,0,1,0.4,1,1c0,0.6-0.5,1-1,1h-14.5C539.1,332,538.7,331.5,538.7,331 M595.1,322.5
			h-96.7v-63.4h96.7v65.4V322.5z M617.1,331.5c0-1.5-1.2-2.7-2.7-2.7v-0.2h-14.4c0.7-0.3,1.2-1.1,1.2-1.9V255c0-1.2-0.9-2.1-2.1-2.1
			H494.3c-1.2,0-2.1,0.9-2.1,2.1v71.7c0,0.9,0.5,1.6,1.2,1.9h-13.9v0.2c-1.5,0-2.7,1.2-2.7,2.7c0,1.5,1.2,2.7,2.7,2.7h134.9
			C615.9,334.2,617.1,333,617.1,331.5"/>
	</g>
	<g id="Livello_1_3_">
	</g>
	<g id="Livello_10" opacity="0.7">
		<path d="M881.3,302.4H723V200.7h158.3L881.3,302.4L881.3,302.4z M887.9,305.6L887.9,305.6V197.5c0-1.8-1.5-3.2-3.3-3.2H719.7
			c-1.8,0-3.3,1.4-3.3,3.2v108.1c0,1.8,1.5,3.2,3.3,3.2h62.7v19.1H756c-1.8,0-3.3,1.4-3.3,3.2c0,1.8,1.5,3.2,3.3,3.2h0h92.3
			c1.8,0,3.3-1.4,3.3-3.2c0-1.8-1.5-3.2-3.3-3.2H822v-19.1h62.7C886.5,308.8,887.9,307.3,887.9,305.6"/>
	</g>
	<g id="Livello_1_4_" opacity="0.7">
	</g>
</g>
<g id="Layer_2">
	<g opacity="0.3">
		<circle cx="91" cy="386.8" r="5"/>
		<path d="M899,381.8c-2.1,0-4,1.4-4.7,3.2H769c-0.7-1.9-2.5-3.2-4.7-3.2s-4,1.4-4.7,3.2H634.3c-0.7-1.9-2.5-3.2-4.7-3.2
			s-4,1.4-4.7,3.2H499.7c-0.7-1.9-2.5-3.2-4.7-3.2s-4,1.4-4.7,3.2H365c-0.7-1.9-2.5-3.2-4.7-3.2s-4,1.4-4.7,3.2H230.3
			c-0.7-1.9-2.5-3.2-4.7-3.2s-4,1.4-4.7,3.2H96v1.8v2.2h125.2c0.8,1.6,2.5,2.8,4.4,2.8c1.9,0,3.6-1.1,4.4-2.8h125.8
			c0.8,1.6,2.5,2.8,4.4,2.8c1.9,0,3.6-1.1,4.4-2.8h125.8c0.8,1.6,2.5,2.8,4.4,2.8s3.6-1.1,4.4-2.8h125.8c0.8,1.6,2.5,2.8,4.4,2.8
			c1.9,0,3.6-1.1,4.4-2.8h125.8c0.8,1.6,2.5,2.8,4.4,2.8c1.9,0,3.6-1.1,4.4-2.8h125.8c0.8,1.6,2.5,2.8,4.4,2.8c2.8,0,5-2.2,5-5
			S901.8,381.8,899,381.8z"/>
	</g>
	<text transform="matrix(1 0 0 1 94.0742 445)" opacity="0.7"><tspan x="0" y="0" font-family="'HelveticaNeue-CondensedBold'" font-size="12">MAX-WIDTH:</tspan><tspan x="16" y="14.4" font-family="'HelveticaNeue-CondensedBold'" font-size="12">480px</tspan></text>
	<text transform="matrix(1 0 0 1 243.4743 445)" opacity="0.7"><tspan x="0" y="0" font-family="'HelveticaNeue-CondensedBold'" font-size="12">MAX-WIDTH:</tspan><tspan x="16" y="14.4" font-family="'HelveticaNeue-CondensedBold'" font-size="12">767px</tspan></text>
	<text transform="matrix(1 0 0 1 511.274 445)" opacity="0.7"><tspan x="0" y="0" font-family="'HelveticaNeue-CondensedBold'" font-size="12">MAX-WIDTH </tspan><tspan x="16" y="14.4" font-family="'HelveticaNeue-CondensedBold'" font-size="12">976px</tspan></text>
	<text transform="matrix(1 0 0 1 844.0801 445)" opacity="0.7"><tspan x="0" y="0" font-family="'HelveticaNeue-CondensedBold'" font-size="12">MIN-WIDTH</tspan><tspan x="8.7" y="14.4" font-family="'HelveticaNeue-CondensedBold'" font-size="12"> 1200px</tspan></text>
	<text transform="matrix(1 0 0 1 423.0004 445)" opacity="0.7"><tspan x="0" y="0" font-family="'HelveticaNeue-CondensedBold'" font-size="12">MIN-WIDTH: </tspan><tspan x="15.9" y="14.4" font-family="'HelveticaNeue-CondensedBold'" font-size="12">768px</tspan></text>
	
		<text transform="matrix(1 0 0 1 581.7511 456.4852)" opacity="0.7" font-family="'HelveticaNeue-CondensedBold'" font-size="28.7032">)</text>
	<text transform="matrix(1 0 0 1 700.7693 445)" opacity="0.7" font-family="'HelveticaNeue-CondensedBold'" font-size="12">DEFAULT</text>
	
		<text transform="matrix(1 0 0 1 402.7511 456.4852)" opacity="0.7" font-family="'HelveticaNeue-CondensedBold'" font-size="28.7032">(</text>
</g>
</svg>
