<?xml version="1.0" encoding="utf-8"?>
<!-- Generator: Adobe Illustrator 17.1.0, SVG Export Plug-In . SVG Version: 6.00 Build 0)  -->
<!DOCTYPE svg PUBLIC "-//W3C//DTD SVG 1.1//EN" "http://www.w3.org/Graphics/SVG/1.1/DTD/svg11.dtd">
<svg version="1.1" xmlns="http://www.w3.org/2000/svg" xmlns:xlink="http://www.w3.org/1999/xlink" x="0px" y="0px" width="700px"
	 height="1116px" viewBox="0 0 700 1116" enable-background="new 0 0 700 1116" xml:space="preserve">
<g id="screenshot">
	<image overflow="visible" width="700" height="1116" xlink:href="img/ss-cpr-home.jpg" >
	</image>
</g>
<g id="level-1" display="none">
	<g id="sidebar-after" display="inline">
		<rect x="30.4" y="177" fill="#006699" stroke="#3F3E3F" stroke-miterlimit="10" width="419.7" height="647.1"/>
		<rect x="476.8" y="177" fill="#CC0000" stroke="#3F3E3F" stroke-miterlimit="10" width="183.8" height="647.1"/>
	</g>
	<g id="sidebar-after_copy" display="inline">
		<rect x="30.4" y="92.5" fill="#006699" stroke="#3F3E3F" stroke-miterlimit="10" width="372.7" height="33.6"/>
		<rect x="577.1" y="92.5" fill="#CC0000" stroke="#3F3E3F" stroke-miterlimit="10" width="83.6" height="33.6"/>
	</g>
</g>
<g id="level-2" display="none">
	<g id="marquee" display="inline">
		<rect x="30.4" y="177" fill="#006699" stroke="#3F3E3F" stroke-miterlimit="10" width="222.7" height="268"/>
		<rect x="266.8" y="177" fill="#CC0000" stroke="#3F3E3F" stroke-miterlimit="10" width="183.8" height="268"/>
	</g>
	<g id="secondary" display="inline">
		<rect x="30.4" y="464" fill="#006699" stroke="#3F3E3F" stroke-miterlimit="10" width="222.7" height="360.1"/>
		<rect x="266.8" y="464" fill="#CC0000" stroke="#3F3E3F" stroke-miterlimit="10" width="183.8" height="360.1"/>
	</g>
</g>
<g id="level-3" display="none">
	<g id="nav-item" display="inline">
		<rect x="266.8" y="197.3" fill="#006699" stroke="#3F3E3F" stroke-miterlimit="10" width="52.5" height="40"/>
		<rect x="332" y="197.3" fill="#CC0000" stroke="#3F3E3F" stroke-miterlimit="10" width="118.6" height="40"/>
	</g>
	<g id="nav-item_1_" display="inline">
		<rect x="266.8" y="246.4" fill="#006699" stroke="#3F3E3F" stroke-miterlimit="10" width="52.5" height="40"/>
		<rect x="332" y="246.4" fill="#CC0000" stroke="#3F3E3F" stroke-miterlimit="10" width="118.6" height="40"/>
	</g>
	<g id="nav-item_3_" display="inline">
		<rect x="266.8" y="295.6" fill="#006699" stroke="#3F3E3F" stroke-miterlimit="10" width="52.5" height="40"/>
		<rect x="332" y="295.6" fill="#CC0000" stroke="#3F3E3F" stroke-miterlimit="10" width="118.6" height="40"/>
	</g>
	<g id="nav-item_2_" display="inline">
		<rect x="266.8" y="344.7" fill="#006699" stroke="#3F3E3F" stroke-miterlimit="10" width="52.5" height="40"/>
		<rect x="332" y="344.7" fill="#CC0000" stroke="#3F3E3F" stroke-miterlimit="10" width="118.6" height="40"/>
	</g>
	<g id="nav-item_4_" display="inline">
		<rect x="266.8" y="393.8" fill="#006699" stroke="#3F3E3F" stroke-miterlimit="10" width="52.5" height="40"/>
		<rect x="332" y="393.8" fill="#CC0000" stroke="#3F3E3F" stroke-miterlimit="10" width="118.6" height="40"/>
	</g>
	<g id="on-air" display="inline">
		<rect x="491.6" y="478.7" fill="#006699" stroke="#3F3E3F" stroke-miterlimit="10" width="100.4" height="54"/>
		<rect x="602.7" y="478.7" fill="#CC0000" stroke="#3F3E3F" stroke-miterlimit="10" width="44.4" height="54"/>
		<rect x="491.6" y="606.7" fill="#006699" stroke="#3F3E3F" stroke-miterlimit="10" width="100.4" height="54"/>
		<rect x="602.7" y="606.7" fill="#CC0000" stroke="#3F3E3F" stroke-miterlimit="10" width="44.4" height="54"/>
	</g>
</g>
<g id="grid-lines" display="none" opacity="0.8">
	<g id="lines" display="inline">
		<line fill="none" stroke="#CC0000" stroke-miterlimit="10" x1="56.7" y1="0" x2="56.7" y2="1116"/>
		<line fill="none" stroke="#CC0000" stroke-miterlimit="10" x1="30.4" y1="0" x2="30.4" y2="1116"/>
		<line fill="none" stroke="#CC0000" stroke-miterlimit="10" x1="83" y1="0" x2="83" y2="1116"/>
		<line fill="none" stroke="#CC0000" stroke-miterlimit="10" x1="109.2" y1="0" x2="109.2" y2="1116"/>
		<line fill="none" stroke="#CC0000" stroke-miterlimit="10" x1="135.5" y1="0" x2="135.5" y2="1116"/>
		<line fill="none" stroke="#CC0000" stroke-miterlimit="10" x1="161.7" y1="0" x2="161.7" y2="1116"/>
		<line fill="none" stroke="#CC0000" stroke-miterlimit="10" x1="188" y1="0" x2="188" y2="1116"/>
		<line fill="none" stroke="#CC0000" stroke-miterlimit="10" x1="214.3" y1="0" x2="214.3" y2="1116"/>
		<line fill="none" stroke="#CC0000" stroke-miterlimit="10" x1="240.5" y1="0" x2="240.5" y2="1116"/>
		<line fill="none" stroke="#CC0000" stroke-miterlimit="10" x1="266.8" y1="0" x2="266.8" y2="1116"/>
		<line fill="none" stroke="#CC0000" stroke-miterlimit="10" x1="293" y1="0" x2="293" y2="1116"/>
		<line fill="none" stroke="#CC0000" stroke-miterlimit="10" x1="319.3" y1="0" x2="319.3" y2="1116"/>
		<line fill="none" stroke="#CC0000" stroke-miterlimit="10" x1="345.6" y1="0" x2="345.6" y2="1116"/>
		<line fill="none" stroke="#CC0000" stroke-miterlimit="10" x1="371.8" y1="0" x2="371.8" y2="1116"/>
		<line fill="none" stroke="#CC0000" stroke-miterlimit="10" x1="398.1" y1="0" x2="398.1" y2="1116"/>
		<line fill="none" stroke="#CC0000" stroke-miterlimit="10" x1="424.3" y1="0" x2="424.3" y2="1116"/>
		<line fill="none" stroke="#CC0000" stroke-miterlimit="10" x1="450.6" y1="0" x2="450.6" y2="1116"/>
		<line fill="none" stroke="#CC0000" stroke-miterlimit="10" x1="476.8" y1="0" x2="476.8" y2="1116"/>
		<line fill="none" stroke="#CC0000" stroke-miterlimit="10" x1="503.1" y1="0" x2="503.1" y2="1116"/>
		<line fill="none" stroke="#CC0000" stroke-miterlimit="10" x1="529.4" y1="0" x2="529.4" y2="1116"/>
		<line fill="none" stroke="#CC0000" stroke-miterlimit="10" x1="555.6" y1="0" x2="555.6" y2="1116"/>
		<line fill="none" stroke="#CC0000" stroke-miterlimit="10" x1="581.9" y1="10" x2="581.9" y2="1126"/>
		<line fill="none" stroke="#CC0000" stroke-miterlimit="10" x1="608.1" y1="10" x2="608.1" y2="1126"/>
		<line fill="none" stroke="#CC0000" stroke-miterlimit="10" x1="660.7" y1="10" x2="660.7" y2="1126"/>
		<line fill="none" stroke="#CC0000" stroke-miterlimit="10" x1="634.4" y1="0" x2="634.4" y2="1116"/>
	</g>
</g>
</svg>
